<svg xmlns="http://www.w3.org/2000/svg" fill="none" viewBox="0 0 48 49" height="49" width="48">
<path fill="black" d="M34 32.75C29.5817 32.75 26 29.1683 26 24.75C26 20.3317 29.5817 16.75 34 16.75C38.4183 16.75 42 20.3317 42 24.75C42 29.1683 38.4183 32.75 34 32.75ZM34 28.75C31.7909 28.75 30 26.9591 30 24.75C30 22.5409 31.7909 20.75 34 20.75C36.2091 20.75 38 22.5409 38 24.75C38 26.9591 36.2091 28.75 34 28.75ZM14 32.75C9.58172 32.75 6 29.1683 6 24.75C6 20.3317 9.58172 16.75 14 16.75C18.4183 16.75 22 20.3317 22 24.75C22 29.1683 18.4183 32.75 14 32.75ZM14 28.75C11.7909 28.75 10 26.9591 10 24.75C10 22.5409 11.7909 20.75 14 20.75C16.2091 20.75 18 22.5409 18 24.75C18 26.9591 16.2091 28.75 14 28.75Z" clip-rule="evenodd" fill-rule="evenodd"></path>
</svg>
