<svg xmlns="http://www.w3.org/2000/svg" fill="none" viewBox="0 0 48 49" height="49" width="48">
<path fill="black" d="M14 46.7495C12.9 46.7495 11.9587 46.3582 11.176 45.5755C10.392 44.7915 10 43.8495 10 42.7495V6.74951C10 5.64951 10.392 4.70751 11.176 3.92351C11.9587 3.14085 12.9 2.74951 14 2.74951H34C35.1 2.74951 36.042 3.14085 36.826 3.92351C37.6087 4.70751 38 5.64951 38 6.74951V42.7495C38 43.8495 37.6087 44.7915 36.826 45.5755C36.042 46.3582 35.1 46.7495 34 46.7495H14ZM14 40.7495V42.7495H34V40.7495H14ZM14 36.7495H34V12.7495H14V36.7495ZM14 8.74951H34V6.74951H14V8.74951Z"></path>
</svg>
