<svg xmlns="http://www.w3.org/2000/svg" fill="none" viewBox="0 0 48 49" height="49" width="48">
<path fill="black" d="M14 46.75C12.9 46.75 11.9587 46.3587 11.176 45.576C10.392 44.792 10 43.85 10 42.75V6.75C10 5.65 10.392 4.708 11.176 3.924C11.9587 3.14133 12.9 2.75 14 2.75H34C35.1 2.75 36.042 3.14133 36.826 3.924C37.6087 4.708 38 5.65 38 6.75V42.75C38 43.85 37.6087 44.792 36.826 45.576C36.042 46.3587 35.1 46.75 34 46.75H14ZM14 40.75V42.75H34V40.75H14ZM14 36.75H34V12.75H14V36.75ZM14 8.75H34V6.75H14V8.75Z"></path>
</svg>
